<?xml version="1.0" standalone="no"?><!DOCTYPE svg PUBLIC "-//W3C//DTD SVG 1.1//EN" "http://www.w3.org/Graphics/SVG/1.1/DTD/svg11.dtd"><svg t="1599140913446" class="icon" viewBox="0 0 1024 1024" version="1.1" xmlns="http://www.w3.org/2000/svg" p-id="2527" xmlns:xlink="http://www.w3.org/1999/xlink" width="16" height="16"><defs><style type="text/css">@font-face { font-family: element-icons; src: url("chrome-extension://moombeodfomdpjnpocobemoiaemednkg/fonts/element-icons.woff") format("woff"), url("chrome-extension://moombeodfomdpjnpocobemoiaemednkg/fonts/element-icons.ttf ") format("truetype"); }
</style></defs><path d="M722.8 815.6c8.5 14.4 3.7 33.5-11.1 41.6-14.7 8.5-33.2 3.5-41.6-11.1-8.9-14.4-3.7-33.1 10.7-41.6 15.1-8.5 33.5-3.3 42 11.1z m-180.1 64.9c0 16.6-13.8 30.5-31 30.5-16.7 0-30.6-13.5-30.6-30.5v-21.4c0-17 14-30.5 30.6-30.5 17 0 31 13.5 31 30.5v21.4z m-188.8-34.4c-8.8 15.1-27.5 19.9-41.9 11.3-14.9-8.3-20.1-27-11.4-41.8l22.8-39.7c8.7-14.6 27.5-19.6 42.3-11.3 14.5 8.5 19.7 27.4 11 41.8l-22.8 39.7zM207.6 722.7c-14.9 8.3-33.9 3.3-42-11.3-8.7-14.4-3.8-33.3 10.9-41.8l61.2-35.3c14.6-8 33.6-3.5 41.9 11.3 8.3 14.4 3.4 33.3-11.4 41.9l-60.6 35.2z m-65.1-180.1c-17 0-30.5-13.7-30.5-30.5 0-17 13.5-30.7 30.5-30.7h95.3c17 0 30.6 13.7 30.6 30.5 0 17-13.6 30.7-30.6 30.7h-95.3z m34.1-188.5c-14.9-8.3-19.6-27-10.9-41.6 8.1-14.8 27.1-19.8 42-11.3l103.5 59.9c14.7 8.3 19.5 27 11.4 41.4-8.8 14.9-27.6 19.7-42 11.3l-104-59.7z m124-146l72 124.8c8.8 14.6 27.5 19.8 42.2 11.1 14.7-8.3 19.4-27.2 10.9-41.8l-72.3-124.6c-8.3-14.4-27.1-19.6-41.5-11.1-14.8 8.5-19.6 27.3-11.3 41.6zM481 143.6c0-16.5 14-30.7 30.6-30.7 17 0 31 13.7 31 30.7v143.8c0 17-13.8 30.7-31 30.9-16.7 0-30.6-13.5-30.6-30.9V143.6z m188.7 34c8.8-14.8 27.3-19.6 42-11.3 14.9 8.3 20.1 27 11.3 41.8l-72.3 124.8c-8 14.6-27.3 19.8-41.8 11.3-14.7-8.5-19.5-27.4-11.2-42.1l72-124.5z m146.8 123.6l-125.3 72.1c-14.7 8.3-19.7 27-11.4 41.8 8.8 14.4 27.6 19.2 42 11.1l125.4-72.1c14.4-8.3 19.6-27 10.9-41.6-8.3-14.8-27.2-20.1-41.6-11.3z m64.4 180.1c17.2 0 30.8 13.7 30.6 30.7 0 16.8-13.4 30.5-30.6 30.5H736.6c-16.6 0-30.6-13.7-30.6-30.7 0-16.8 14-30.5 30.6-30.5h144.3z m0 0" p-id="2528" fill="#ffffff"></path></svg>