<?xml version="1.0" standalone="no"?><!DOCTYPE svg PUBLIC "-//W3C//DTD SVG 1.1//EN" "http://www.w3.org/Graphics/SVG/1.1/DTD/svg11.dtd"><svg t="1598866389986" class="icon" viewBox="0 0 1024 1024" version="1.1" xmlns="http://www.w3.org/2000/svg" p-id="1226" xmlns:xlink="http://www.w3.org/1999/xlink" width="48" height="48"><defs><style type="text/css">@font-face { font-family: element-icons; src: url("chrome-extension://moombeodfomdpjnpocobemoiaemednkg/fonts/element-icons.woff") format("woff"), url("chrome-extension://moombeodfomdpjnpocobemoiaemednkg/fonts/element-icons.ttf ") format("truetype"); }
</style></defs><path d="M512 56.888889a455.111111 455.111111 0 1 0 0 910.222222A455.111111 455.111111 0 0 0 512 56.888889z m0 796.444444c-188.245333 0-341.333333-153.088-341.333333-341.333333s153.088-341.333333 341.333333-341.333333 341.333333 153.088 341.333333 341.333333-153.088 341.333333-341.333333 341.333333z" fill="#0099CC" p-id="1227"></path><path d="M683.235556 455.111111H568.888889V340.764444A56.32 56.32 0 0 0 512.568889 284.444444h-1.137778a56.32 56.32 0 0 0-56.32 56.32V455.111111H340.764444a56.32 56.32 0 0 0-56.32 56.32v1.137778c0 31.118222 25.201778 56.32 56.32 56.32H455.111111v114.346667c0 31.118222 25.201778 56.32 56.32 56.32h1.137778a56.32 56.32 0 0 0 56.32-56.32V568.888889h114.346667a56.32 56.32 0 0 0 56.32-56.32v-1.137778a56.32 56.32 0 0 0-56.32-56.32z" fill="#0099CC" p-id="1228"></path></svg>