<?xml version="1.0" standalone="no"?><!DOCTYPE svg PUBLIC "-//W3C//DTD SVG 1.1//EN" "http://www.w3.org/Graphics/SVG/1.1/DTD/svg11.dtd"><svg t="1599492091016" class="icon" viewBox="0 0 1243 1024" version="1.1" xmlns="http://www.w3.org/2000/svg" p-id="10768" xmlns:xlink="http://www.w3.org/1999/xlink" width="19.421875" height="16"><defs><style type="text/css">@font-face { font-family: element-icons; src: url("chrome-extension://moombeodfomdpjnpocobemoiaemednkg/fonts/element-icons.woff") format("woff"), url("chrome-extension://moombeodfomdpjnpocobemoiaemednkg/fonts/element-icons.ttf ") format("truetype"); }
</style></defs><path d="M621.911351 96.116809c194.369546 0 391.409004 71.019642 539.678081 219.288719 18.689379 18.867374 49.126369 18.867374 67.993742 0 9.077699-9.077699 14.239527-21.359291 14.239527-33.996872 0-12.815574-5.161829-25.097167-14.239527-33.996871C1062.624718 80.453329 840.844081 0 621.911351 0 402.800626 0 181.197984 80.453329 14.239527 247.411785c-9.077699 9.077699-14.239527 21.359291-14.239527 33.996871 0 12.815574 5.161829 25.097167 14.239527 33.996872 18.867374 18.867374 49.304363 18.867374 67.993743 0C230.502347 167.136451 427.541804 96.116809 621.911351 96.116809z" fill="#ffffff" p-id="10769"></path><path d="M1095.909612 471.684339l-0.177994 0.177994c-16.375456 19.045368-44.676517 22.427255-64.967843 7.297757-125.485833-92.734921-259.337389-158.058752-408.852424-158.058752s-283.366591 65.323831-408.852425 158.058752c-20.291326 14.951504-48.592387 11.74761-64.967843-7.297757l-0.177994-0.177994c-9.077699-10.501651-12.815574-22.961238-11.213628-36.666783s8.009734-24.919173 19.223362-33.106901c142.573266-105.194507 296.36016-176.748131 465.988528-176.748131 169.806362 0 323.593256 71.731618 465.988527 176.748131 11.035634 8.187728 17.621415 19.401356 19.223362 33.106901s-2.135929 26.165131-11.213628 36.666783z" fill="#ffffff" p-id="10770"></path><path d="M621.911351 542.881975c101.81262 0 190.097688 30.970972 276.78081 92.556926 20.291326 14.417521 48.058404 11.035634 64.255866-7.83174l0.177994-0.177994c9.077699-10.679645 12.815574-23.139232 11.213628-37.02277-1.779941-13.883539-8.365722-25.097167-19.757344-33.284895-103.414566-73.333565-211.100991-110.178342-332.49296-110.178342s-229.078394 36.844777-332.492961 110.178342c-11.391622 8.009734-18.155397 19.401356-19.757343 33.284895-1.779941 13.883539 2.135929 26.521119 11.213627 37.02277l0.177994 0.177994c16.197462 18.867374 43.96454 22.249261 64.255867 7.83174 86.683122-61.585955 174.968191-92.556927 276.78081-92.556926zM621.911351 758.610812h-1.957935c-48.592387 0-95.938815 14.417521-135.809491 40.93864-20.291326 13.527551-47.168434 9.789675-63.187902-8.72171-9.255693-10.857639-13.171563-23.851208-11.035634-37.912741 1.957935-14.061533 9.255693-25.631149 21.003303-33.462889 55.71215-36.844777 121.213975-56.958109 189.029724-56.958109h3.91587c67.815748 0 133.317573 20.113332 189.029723 56.958109 11.925604 7.83174 19.045368 19.223362 21.003303 33.462889 1.957935 14.061533-1.779941 27.055102-11.035634 37.912741-15.841474 18.511385-42.718582 22.249261-63.187902 8.72171-40.04867-26.521119-87.217104-40.938641-135.80949-40.93864h-1.957935zM549.64575 949.242482c-0.88997 26.343125 12.63758 51.084304 35.420824 64.611855s50.90631 13.527551 73.689553 0 36.310794-38.268729 35.420824-64.611855c-1.423953-38.980706-33.284895-69.773683-72.2656-69.773683s-70.841648 30.792978-72.265601 69.773683z" p-id="10771" fill="#ffffff"></path></svg>