<?xml version="1.0" standalone="no"?><!DOCTYPE svg PUBLIC "-//W3C//DTD SVG 1.1//EN" "http://www.w3.org/Graphics/SVG/1.1/DTD/svg11.dtd"><svg t="1599492118533" class="icon" viewBox="0 0 1243 1024" version="1.1" xmlns="http://www.w3.org/2000/svg" p-id="11553" xmlns:xlink="http://www.w3.org/1999/xlink" width="19.421875" height="16"><defs><style type="text/css">@font-face { font-family: element-icons; src: url("chrome-extension://moombeodfomdpjnpocobemoiaemednkg/fonts/element-icons.woff") format("woff"), url("chrome-extension://moombeodfomdpjnpocobemoiaemednkg/fonts/element-icons.ttf ") format("truetype"); }
</style></defs><path d="M621.776027 96.234102c194.196961 0 391.275183 70.87901 539.371975 219.552054 19.01632 19.01632 48.981429 19.01632 67.997749 0 9.220034-9.220034 14.406303-21.321328 14.406303-33.998874s-5.186269-24.778841-14.406303-33.998875C1062.032639 80.675295 840.751829 0.576252 621.776027 0.576252S180.943163 81.251548 14.406303 247.788407C5.186269 257.008441 0 269.109736 0 281.787282s5.186269 24.778841 14.406303 33.998874c19.01632 19.01632 49.557681 19.01632 67.997749 0 148.096792-148.096792 345.175014-219.552054 539.371975-219.552054z" fill="#ffffff" p-id="11554"></path><path d="M1095.455262 471.374226c-16.711311 19.01632-44.947665 22.473832-65.116489 7.491278-125.62296-92.77659-259.31345-157.893078-408.562746-157.893079-149.825549 0-283.516038 65.116488-408.562746 157.893079-20.168824 14.982555-48.405177 11.525042-65.116489-7.491278-9.220034-10.372538-12.677546-23.050084-10.94879-36.880135s8.06753-24.778841 19.01632-33.422622c142.334271-104.877884 296.193585-176.909398 466.187957-176.909398 169.41812 0 323.277434 71.455262 466.187957 176.909398 10.94879 8.06753 17.863815 19.592572 19.01632 33.422622 1.728756 13.830051-2.305008 25.931345-10.94879 36.880135z" fill="#ffffff" p-id="11555"></path><path d="M621.776027 542.829488c101.996624 0 190.163196 31.117614 276.601013 92.200338 20.168824 14.406303 47.828925 10.94879 63.963984-8.06753 9.220034-10.372538 12.677546-23.050084 10.94879-36.880135s-8.643782-25.355093-19.592571-33.422622c-103.149128-73.184018-210.908272-110.064153-332.497468-110.064154s-229.34834 36.880135-332.497468 110.064154c-11.525042 8.06753-17.863815 19.592572-19.592571 33.422622s2.305008 26.507597 10.94879 36.880135c16.135059 19.01632 43.79516 22.473832 63.963984 8.06753 87.014069-61.658976 174.604389-92.200338 276.601013-92.200338zM621.776027 758.347777h-1.728756c-48.405177 0-95.65785 14.406303-135.995498 40.9139-20.168824 13.253799-47.252673 9.796286-63.387732-8.643782-9.220034-10.94879-13.253799-23.626337-10.948791-38.032639 1.728756-14.406303 9.220034-25.355093 21.321329-33.422622 55.896455-36.880135 121.012943-57.048959 189.010692-57.048959h3.457512c67.997749 0 133.114237 20.168824 189.010693 57.048959 12.101294 8.06753 19.01632 19.01632 21.321328 33.422622 1.728756 14.406303-1.728756 27.083849-10.94879 38.032639-16.135059 18.440068-42.642656 22.473832-63.387733 8.643782-39.761396-26.507597-87.014069-40.9139-135.995498-40.9139h-1.728756zM549.744513 949.087226c-1.152504 26.507597 12.677546 51.286438 35.151379 64.540236s50.710186 13.253799 73.76027 0c22.473832-13.253799 36.303883-38.032639 35.151379-64.540236-1.152504-38.608891-33.422622-69.726505-72.031514-69.726506-39.185144 0-70.87901 30.541362-72.031514 69.726506z" fill="#ffffff" p-id="11556"></path></svg>