<?xml version="1.0" standalone="no"?><!DOCTYPE svg PUBLIC "-//W3C//DTD SVG 1.1//EN" "http://www.w3.org/Graphics/SVG/1.1/DTD/svg11.dtd"><svg t="1599492083865" class="icon" viewBox="0 0 1243 1024" version="1.1" xmlns="http://www.w3.org/2000/svg" p-id="10507" xmlns:xlink="http://www.w3.org/1999/xlink" width="19.421875" height="16"><defs><style type="text/css">@font-face { font-family: element-icons; src: url("chrome-extension://moombeodfomdpjnpocobemoiaemednkg/fonts/element-icons.woff") format("woff"), url("chrome-extension://moombeodfomdpjnpocobemoiaemednkg/fonts/element-icons.ttf ") format("truetype"); }
</style></defs><path d="M621.959732 96.214765c194.577181 0 391.302013 71.302013 539.919463 219.489933 18.899329 18.899329 49.395973 18.899329 67.865771 0 9.020134-9.020134 14.174497-21.47651 14.174497-33.932886 0-12.885906-5.154362-24.912752-14.174497-33.932886C1062.657718 80.751678 841.020134 0.42953 621.959732 0.42953S181.261745 80.751678 14.174497 247.838926c-9.020134 9.020134-14.174497 21.47651-14.174497 33.932886 0 12.885906 5.154362 24.912752 14.174497 33.932886 18.899329 18.899329 49.395973 18.899329 67.865771 0 148.187919-148.187919 345.342282-219.489933 539.919464-219.489933z" fill="#ffffff" p-id="10508"></path><path d="M1096.161074 471.624161c-16.322148 19.328859-44.671141 22.33557-64.859061 7.302013-125.422819-92.778523-259.436242-158.067114-408.912751-158.067114s-283.489933 65.288591-408.912752 158.067114c-20.187919 15.033557-48.536913 11.597315-64.85906-7.302013-9.020134-10.308725-12.885906-22.765101-11.167786-36.510067s8.161074-24.912752 19.328859-33.073826c142.604027-105.234899 296.375839-176.966443 466.040269-176.966442s323.436242 71.731544 466.040268 176.966442c11.167785 8.161074 17.610738 19.328859 19.328859 33.073826s-2.147651 26.201342-11.167785 36.510067z" p-id="10509" fill="#ffffff"></path><path d="M621.959732 542.926174c101.798658 0 190.281879 30.926174 277.046979 92.348994 20.187919 14.604027 48.107383 11.167785 64.429531-7.731544 9.020134-10.738255 12.885906-23.194631 11.167785-36.939597s-8.590604-25.342282-19.758389-33.073826c-103.516779-73.449664-210.899329-110.389262-332.456376-110.389261s-229.369128 36.939597-332.456376 110.389261c-11.597315 8.161074-18.040268 19.328859-19.758389 33.073826s2.147651 26.630872 11.167785 36.939597c16.322148 18.899329 43.812081 22.33557 64.42953 7.731544 86.765101-61.422819 174.818792-92.348993 277.04698-92.348994zM621.959732 758.550336h-1.718121c-48.536913 0-95.785235 14.604027-135.731544 40.805369-20.187919 13.315436-47.248322 9.879195-63.140939-9.020135-9.449664-10.738255-12.885906-23.624161-11.167786-37.798657 2.147651-14.174497 9.020134-25.771812 21.04698-33.503356 55.838926-36.939597 121.127517-57.127517 188.993289-57.127517h3.436241c67.865772 0 133.583893 20.187919 188.993289 57.127517 12.026846 7.731544 18.899329 19.328859 21.04698 33.503356s-1.718121 27.060403-11.167785 37.798657c-15.892617 18.469799-42.95302 22.33557-63.14094 9.020135-39.946309-26.630872-87.194631-40.805369-135.731544-40.805369h-1.71812zM549.798658 949.261745c-0.85906 26.201342 12.456376 51.114094 35.221476 64.42953s51.114094 13.315436 73.879195 0 36.080537-38.228188 35.221476-64.42953c-1.288591-39.087248-33.073826-69.583893-72.161073-69.583893s-70.872483 30.926174-72.161074 69.583893z" p-id="10510" fill="#ffffff"></path></svg>