<?xml version="1.0" standalone="no"?><!DOCTYPE svg PUBLIC "-//W3C//DTD SVG 1.1//EN" "http://www.w3.org/Graphics/SVG/1.1/DTD/svg11.dtd"><svg t="1599492107534" class="icon" viewBox="0 0 1244 1024" version="1.1" xmlns="http://www.w3.org/2000/svg" p-id="11291" xmlns:xlink="http://www.w3.org/1999/xlink" width="19.4375" height="16"><defs><style type="text/css">@font-face { font-family: element-icons; src: url("chrome-extension://moombeodfomdpjnpocobemoiaemednkg/fonts/element-icons.woff") format("woff"), url("chrome-extension://moombeodfomdpjnpocobemoiaemednkg/fonts/element-icons.ttf ") format("truetype"); }
</style></defs><path d="M622.004443 96.192955c194.335766 0 391.271342 71.169787 539.785465 219.358933 18.848619 18.848619 49.071406 18.848619 67.920025 0 9.099334-9.099334 14.298953-21.123453 14.298953-34.122501 0-12.674072-5.199619-25.023167-14.298953-34.1225C1062.672168 80.269121 841.038401 0 622.004443 0S181.336719 80.594097 14.298953 247.306887C5.199619 256.40622 0 268.43034 0 281.429387c0 12.674072 5.199619 25.023167 14.298953 34.122501 18.848619 18.848619 49.396382 18.848619 67.920025 0 148.189146-148.189146 345.449699-219.358934 539.785465-219.358933z" fill="#ffffff" p-id="11292"></path><path d="M1096.144716 471.86544l-0.324976 0.324976c-16.573786 19.173596-44.521739 22.423358-64.99524 7.474452-125.440812-92.618216-259.331006-157.938432-408.820057-157.938432s-283.379245 65.320216-408.820057 157.938432c-20.148524 14.948905-48.421454 11.699143-64.99524-7.474452l-0.324976-0.324976c-9.099334-10.399238-12.674072-22.748334-11.374167-36.722311 1.624881-13.649 8.124405-25.023167 19.173596-33.147572 142.664551-105.292288 296.378293-176.787052 466.015868-176.787052s323.676293 71.81974 466.015868 176.787052c11.049191 8.124405 17.548715 19.498572 19.173595 33.147572s-2.274833 26.323072-11.374166 36.722311z" fill="#ffffff" p-id="11293"></path><path d="M622.004443 543.035227c102.042526 0 190.111076 30.872739 276.879721 92.618216 20.148524 14.298953 48.096477 11.049191 64.345287-7.799428l0.324976-0.324977c9.099334-10.724215 12.999048-23.07331 11.049191-37.047286-1.624881-13.973977-8.449381-25.023167-19.823548-33.147572-103.342431-73.444621-211.234529-110.166931-332.450651-110.166932-121.541098 0-229.10822 36.72231-332.45065 110.166932-11.374167 8.124405-18.198667 19.498572-19.823548 33.147572-1.624881 13.973977 1.949857 26.323072 11.04919 37.047286l0.324976 0.324977c16.24881 18.848619 43.871787 22.423358 64.345288 7.799428 86.768645-61.420501 174.837195-92.618216 276.87972-92.618216zM622.004443 758.494446h-1.949857c-48.74643 0-95.867978 14.298953-135.840051 40.947001-20.4735 13.649-47.121549 9.749286-63.045382-8.774357-9.42431-10.724215-12.999048-23.723262-11.049191-38.022215s9.099334-25.67312 21.123453-33.472549c55.57093-36.72231 121.216122-56.870835 189.136147-56.870834h3.899714c67.595049 0 133.565217 20.148524 189.136148 56.870834 12.024119 7.799429 19.173596 19.173596 21.123453 33.472549s-1.949857 26.973024-11.049191 38.022215c-15.923834 18.523643-42.896858 22.423358-63.045383 8.774357-39.972072-26.648048-87.093621-40.947001-135.84005-40.947001h-1.949858z" fill="#ffffff" p-id="11294"></path><path d="M549.859727 949.255474c-0.974929 26.323072 12.674072 51.021263 35.422406 64.670264 22.748334 13.324024 51.021263 13.324024 73.769597 0s36.397334-38.347191 35.422405-64.670264c-1.299905-38.997144-33.147572-69.869883-72.144716-69.869882s-70.844811 30.872739-72.144716 69.869882z" p-id="11295" fill="#0099CC"></path></svg>