<?xml version="1.0" standalone="no"?><!DOCTYPE svg PUBLIC "-//W3C//DTD SVG 1.1//EN" "http://www.w3.org/Graphics/SVG/1.1/DTD/svg11.dtd"><svg t="1599492100739" class="icon" viewBox="0 0 1243 1024" version="1.1" xmlns="http://www.w3.org/2000/svg" p-id="11029" xmlns:xlink="http://www.w3.org/1999/xlink" width="19.421875" height="16"><defs><style type="text/css">@font-face { font-family: element-icons; src: url("chrome-extension://moombeodfomdpjnpocobemoiaemednkg/fonts/element-icons.woff") format("woff"), url("chrome-extension://moombeodfomdpjnpocobemoiaemednkg/fonts/element-icons.ttf ") format("truetype"); }
</style></defs><path d="M621.868446 96.17507c194.333889 0 391.386249 71.047588 539.653088 219.3879 18.735403 18.808875 49.226354 18.808875 68.035229 0 9.110549-9.037077 14.180129-21.306929 14.180129-34.017615 0-12.784158-5.06958-25.05401-14.180129-34.091087C1062.554521 80.452026 840.888985 0.073472 621.868446 0 402.847908 0 181.182371 80.452026 14.180129 247.454268 5.06958 256.491345 0 268.761198 0 281.545355s5.06958 25.05401 14.180129 34.017615c18.808875 18.808875 49.299826 18.808875 68.035229 0 148.340311-148.266839 345.319199-219.314427 539.653088-219.3879z" fill="#ffffff" p-id="11030"></path><path d="M1095.837414 471.691331l-0.146944 0.220416c-16.457766 19.102764-44.671079 22.33554-64.949398 7.347217-125.490466-92.721878-259.283288-158.038637-408.872626-158.038637s-283.382159 65.316759-408.872625 158.038637c-20.278319 14.988323-48.491632 11.755547-64.949399-7.347217l-0.146944-0.220416c-9.037077-10.50652-12.784158-22.923317-11.241242-36.662613s8.081939-24.980538 19.176236-33.209421c142.462537-105.138675 296.313261-176.774041 466.033974-176.847513 169.720712 0 323.571436 71.635366 466.033974 176.847513 11.094298 8.228883 17.633321 19.470125 19.176236 33.209421s-2.204165 26.156092-11.241242 36.662613z" fill="#ffffff" p-id="11031"></path><path d="M621.868446 542.812391c101.9059 0 190.072504 30.931784 276.769664 92.501462 20.278319 14.400545 48.050799 11.020825 64.214677-7.934994l0.146944-0.220417c9.110549-10.579992 12.85763-23.217206 11.16777-37.103445s-8.4493-25.200954-19.837486-33.282893c-103.375343-73.398698-211.085544-110.208255-332.535041-110.208255s-229.159698 36.809557-332.535041 110.208255c-11.388186 8.081939-18.147626 19.396653-19.837486 33.282893s2.057221 26.449981 11.16777 37.103445l0.146944 0.220417c16.163877 18.95582 43.936358 22.33554 64.214677 7.934994 86.770633-61.569678 174.937237-92.501462 276.769664-92.501462z" fill="#ffffff" p-id="11032"></path><path d="M621.868446 758.526682h-1.910276c-48.712049 0-95.881182 14.474017-135.850042 40.923999-20.351791 13.518879-47.242605 9.771799-63.112594-8.816661-9.257493-10.873881-13.078046-23.804983-11.094298-37.985111s9.184021-25.568315 21.086513-33.429838c55.618433-36.883029 121.302553-56.940932 189.043893-56.940931h3.820553c67.741341 0 133.425461 20.057902 189.043893 56.940931 11.902492 7.861522 19.102764 19.323181 21.086513 33.429838 1.983749 14.180129-1.836804 27.111231-11.094298 37.985111-15.869989 18.588459-42.760803 22.262067-63.112594 8.816661-39.96886-26.523453-87.137994-40.923999-135.850042-40.923999h-1.910277zM549.718775 949.260435c-0.881666 26.376509 12.637213 51.13663 35.340114 64.65551 22.702901 13.445407 50.989686 13.445407 73.692586 0s36.22178-38.205528 35.340114-64.65551c-1.322499-38.94025-33.282893-69.725089-72.223143-69.725089s-70.827172 30.858311-72.223143 69.725089z" p-id="11033" fill="#ffffff"></path></svg>