<?xml version="1.0" standalone="no"?><!DOCTYPE svg PUBLIC "-//W3C//DTD SVG 1.1//EN" "http://www.w3.org/Graphics/SVG/1.1/DTD/svg11.dtd"><svg t="1598970354546" class="icon" viewBox="0 0 1024 1024" version="1.1" xmlns="http://www.w3.org/2000/svg" p-id="1739" xmlns:xlink="http://www.w3.org/1999/xlink" width="16" height="16"><defs><style type="text/css">@font-face { font-family: element-icons; src: url("chrome-extension://moombeodfomdpjnpocobemoiaemednkg/fonts/element-icons.woff") format("woff"), url("chrome-extension://moombeodfomdpjnpocobemoiaemednkg/fonts/element-icons.ttf ") format("truetype"); }
</style></defs><path d="M765.3632 935.8592c-4.1728 0-8.3712-1.024-12.1856-3.072l-253.1072-136.9344-262.4 135.0144a25.4976 25.4976 0 0 1-27.4432-2.6112 25.5232 25.5232 0 0 1-9.1904-25.984l64.128-275.1232-206.976-192.5888c-7.3216-6.8096-10.0096-17.2288-6.8864-26.7008s11.4688-16.3072 21.376-17.4592l293.2736-34.0224 133.4784-254.5408c4.5312-8.6528 13.3888-14.4128 23.3728-13.696a25.6 25.6 0 0 1 22.6048 14.9504l116.0704 254.5408 290.0736 36.224a25.6 25.6 0 0 1 13.6192 44.7232l-220.4416 191.5648 45.0816 270.9248a25.6 25.6 0 0 1-23.936 34.7392l-0.512 0.0512z m-264.96-194.56c4.1984 0 8.3968 1.024 12.1856 3.072l218.9312 118.4512-39.6544-238.3872a25.6 25.6 0 0 1 8.448-23.5264l187.9808-163.328-247.3472-30.8992a25.5488 25.5488 0 0 1-20.1216-14.7712l-100.3264-220.0064-115.5072 220.2368a25.6 25.6 0 0 1-19.7376 13.5424l-251.6224 29.184 177.2544 164.9152c6.7072 6.2464 9.5744 15.616 7.5008 24.5504l-54.9376 235.6736 225.2032-115.8912a26.112 26.112 0 0 1 11.7504-2.816z" fill="#4198C8" p-id="1740"></path></svg>