<?xml version="1.0" standalone="no"?><!DOCTYPE svg PUBLIC "-//W3C//DTD SVG 1.1//EN" "http://www.w3.org/Graphics/SVG/1.1/DTD/svg11.dtd"><svg t="1598882940994" class="icon" viewBox="0 0 1024 1024" version="1.1" xmlns="http://www.w3.org/2000/svg" p-id="2112" xmlns:xlink="http://www.w3.org/1999/xlink" width="16" height="16"><defs><style type="text/css">@font-face { font-family: element-icons; src: url("chrome-extension://moombeodfomdpjnpocobemoiaemednkg/fonts/element-icons.woff") format("woff"), url("chrome-extension://moombeodfomdpjnpocobemoiaemednkg/fonts/element-icons.ttf ") format("truetype"); }
</style></defs><path d="M512 1013.76c-276.48 0-501.76-225.28-501.76-496.64S235.52 15.36 512 15.36s501.76 225.28 501.76 501.76-225.28 496.64-501.76 496.64z m0-921.6c-230.4 0-424.96 189.44-424.96 419.84s189.44 419.84 419.84 419.84 419.84-189.44 419.84-419.84-184.32-419.84-414.72-419.84z" fill="#0099CC" p-id="2113"></path><path d="M727.04 552.96H291.84c-20.48 0-35.84-20.48-35.84-40.96s15.36-40.96 40.96-40.96h435.2c20.48 0 40.96 15.36 40.96 40.96s-25.6 40.96-46.08 40.96z" fill="#0099CC" p-id="2114"></path></svg>